<svg width="1068" height="1068" viewBox="0 0 1068 1068" fill="none" xmlns="http://www.w3.org/2000/svg">
<rect x="0.304688" y="0.03125" width="1066.92" height="1066.92" fill="#D9D9D9"/>
<rect x="0.304688" y="233.922" width="1066.92" height="599.144" fill="#6B6969"/>
<rect x="234.195" y="1066.96" width="1066.92" height="599.144" transform="rotate(-90 234.195 1066.96)" fill="#6B6969"/>
<rect x="179.016" y="504.835" width="177.287" height="57.6716" fill="white"/>
<rect x="446.014" y="504.835" width="177.287" height="57.6716" fill="white"/>
<rect x="712.3" y="504.835" width="177.287" height="57.6716" fill="white"/>
<rect x="0.304688" y="504.835" width="88.6433" height="57.6716" fill="white"/>
<rect x="978.586" y="504.835" width="88.6433" height="57.6716" fill="white"/>
<rect x="503.685" y="233.922" width="54.8236" height="57.6716" transform="rotate(-90 503.685 233.922)" fill="white"/>
<rect x="506.234" y="889.488" width="56.4225" height="57.6716" transform="rotate(-90 506.234 889.488)" fill="white"/>
<rect x="502.545" y="88.8584" width="88.6433" height="57.6716" transform="rotate(-90 502.545 88.8584)" fill="white"/>
<rect x="507.317" y="1067.13" width="88.6433" height="57.6716" transform="rotate(-90 507.317 1067.13)" fill="white"/>
</svg>
