<svg width="1068" height="1068" viewBox="0 0 1068 1068" fill="none" xmlns="http://www.w3.org/2000/svg">
<rect x="0.770508" y="0.387207" width="1066.92" height="1066.92" fill="#D9D9D9"/>
<rect x="0.770508" y="234.277" width="1066.92" height="599.144" fill="#6B6969"/>
<rect x="234.661" y="1067.31" width="1066.92" height="599.144" transform="rotate(-90 234.661 1067.31)" fill="#6B6969"/>
<rect x="179.481" y="505.191" width="177.287" height="57.6716" fill="white"/>
<rect x="446.479" y="505.191" width="177.287" height="57.6716" fill="white"/>
<rect x="712.766" y="505.191" width="177.287" height="57.6716" fill="white"/>
<rect x="0.770508" y="505.191" width="88.6433" height="57.6716" fill="white"/>
<rect x="979.051" y="505.191" width="88.6433" height="57.6716" fill="white"/>
<rect x="504.15" y="234.277" width="54.8236" height="57.6716" transform="rotate(-90 504.15 234.277)" fill="white"/>
<rect x="506.7" y="889.844" width="56.4225" height="57.6716" transform="rotate(-90 506.7 889.844)" fill="white"/>
<rect x="503.011" y="89.2144" width="88.6433" height="57.6716" transform="rotate(-90 503.011 89.2144)" fill="white"/>
<rect x="507.783" y="1067.48" width="88.6433" height="57.6716" transform="rotate(-90 507.783 1067.48)" fill="white"/>
<path d="M281.485 467.807C191.062 492.869 176.169 639.516 180.026 709.707C210.04 716.526 422.638 901.233 475.86 825.05C618.081 709.707 717.859 745.014 741.968 744.773C1132.32 740.857 882.409 686.389 882.409 584.93C882.409 483.47 796.613 467.807 741.968 467.807C709.816 467.807 787.475 360.259 768.668 316.686C755.51 286.202 643.887 326.745 632.677 288.206C605.443 194.579 484.404 225.728 425.842 241.392C378.993 253.923 356.838 340.241 351.617 381.833C365.916 400.048 371.908 442.744 281.485 467.807Z" fill="#3A3838" stroke="black"/>
<path d="M51.0155 378.147L179.659 155.33L308.303 378.147H51.0155Z" fill="white" stroke="#FF0000" stroke-width="4"/>
<ellipse cx="178.948" cy="259.553" rx="8.72194" ry="44.4997" fill="#232323"/>
<circle cx="178.769" cy="334.313" r="13.5279" fill="#232323"/>
</svg>
