<svg width="1325" height="1053" viewBox="0 0 1325 1053" fill="none" xmlns="http://www.w3.org/2000/svg">
<circle cx="264.5" cy="868.5" r="184.5" fill="#2D2828"/>
<circle cx="1044.5" cy="868.5" r="184.5" fill="#2D2828"/>
<path d="M1324 748H1.5C13 497.333 159.9 -2.99996 655.5 1.00004C762.458 1.8633 853.625 25.6266 931 64.8515C1074.07 137.38 1169.98 262.771 1231.37 394C1290.62 520.653 1317.71 652.744 1324 748Z" fill="#4169F7"/>
<path d="M931 64.8515C853.625 25.6266 762.458 1.8633 655.5 1.00004C159.9 -2.99996 13 497.333 1.5 748H1324C1317.71 652.744 1290.62 520.653 1231.37 394M931 64.8515V394H1231.37M931 64.8515C1074.07 137.38 1169.98 262.771 1231.37 394" stroke="black"/>
<path d="M930.5 393.5V65C930.5 65 1110 133 1232 393.5H930.5Z" fill="#FDFDFD" stroke="black"/>
<circle cx="272" cy="870" r="79" fill="#EEEEEE"/>
<circle cx="1044" cy="870" r="79" fill="#EEEEEE"/>
</svg>
